<svg xmlns="http://www.w3.org/2000/svg" xmlns:xlink="http://www.w3.org/1999/xlink" viewBox="8614 978 75 75"><defs><style>.a{clip-path:url(#b);}.b,.c{fill:none;stroke:#0046b4;stroke-linejoin:round;stroke-miterlimit:10;stroke-width:1.5px;}.c{stroke-linecap:round;}.d{fill:rgba(0,70,180,0.19);}</style><clipPath id="b"><rect x="8614" y="978" width="75" height="75"/></clipPath></defs><g id="a" class="a"><g transform="translate(8620.555 982.2)"><path class="b" d="M17.3,13.17V37.48c0,8.25,4.4,14.96,12.65,14.96h0c8.03,0,12.21-6.49,12.21-14.52V11.3H58.44a.237.237,0,0,1,.22.22V34.84c0,17.05-11.55,30.91-28.6,30.91h0C12.57,65.75.8,51.56.8,34.07V11.52a.237.237,0,0,1,.22-.22H17.3Z" transform="translate(0 1.05)"/><line class="b" x2="16.5" transform="translate(0.8 22.36)"/><line class="b" x2="16.61" transform="translate(42.38 22.36)"/><line class="c" y2="7.48" transform="translate(8.28 0.8)"/><line class="c" y2="5.17" transform="translate(14.11 3.11)"/><line class="c" y2="5.17" transform="translate(2.45 3.11)"/><line class="c" y2="7.48" transform="translate(49.97 0.8)"/><line class="c" y2="5.17" transform="translate(55.8 3.11)"/><line class="c" y2="5.17" transform="translate(44.14 3.11)"/><rect class="d" width="16.774" height="10" transform="translate(4.445 15.8)"/><rect class="d" width="16.774" height="10" transform="translate(45.886 15.8)"/></g></g></svg>