<svg xmlns="http://www.w3.org/2000/svg" xmlns:xlink="http://www.w3.org/1999/xlink" viewBox="8614 1240 75 75"><defs><style>.a{clip-path:url(#b);}.b{fill:none;stroke:#0046b4;stroke-linejoin:round;stroke-miterlimit:10;stroke-width:1.5px;}.c{fill:rgba(0,70,180,0.23);}</style><clipPath id="b"><rect x="8614" y="1240" width="75" height="75"/></clipPath></defs><g id="a" class="a"><g transform="translate(8627.598 1244.2)"><circle class="b" cx="4.11" cy="4.11" r="4.11" transform="translate(21.026 10.966)"/><circle class="c" cx="4.11" cy="4.11" r="4.11" transform="translate(23.026 12.966)"/><path class="b" d="M42.7,39.3" transform="translate(3.418 3.139)"/><path class="b" d="M35.822,42.439H12.136A45.317,45.317,0,0,1,9,26.432C9,12.264,15.705.8,24.033.8S39.067,12.264,39.067,26.54a38.235,38.235,0,0,1-3.245,15.9" transform="translate(0.67 0)"/><path class="b" d="M9.67,29.2S-4.93,39.258,3.289,52.886L13.347,40.123" transform="translate(0 2.315)"/><path class="b" d="M37.277,29.2s14.6,10.058,6.381,23.686L33.6,40.123" transform="translate(2.676 2.315)"/><path class="b" d="M13.7,39.3l2.163,6.381H31.329L33.6,39.3" transform="translate(1.053 3.139)"/><path class="b" d="M29.332,45.4c.649.324,1.622,3.569,1.082,5.3a20.427,20.427,0,0,1-1.19,2.7c-.433.757-1.3,2.055-1.514,2.379.108-.865-.433-4.218-2.163-3.894,0,0-1.514.216-.216,4.11,0,0,.973,3.894-2.055,6.165a9.863,9.863,0,0,0-.433-4.434c-1.514-3.353-5.408-4.975-5.84-8.977a5.837,5.837,0,0,1,.541-3.136" transform="translate(1.32 3.636)"/></g></g></svg>