<svg xmlns="http://www.w3.org/2000/svg" xmlns:xlink="http://www.w3.org/1999/xlink" viewBox="8614 716 75 75"><defs><style>.a{clip-path:url(#b);}.b{fill:none;stroke:#0046b4;stroke-linejoin:round;stroke-miterlimit:10;stroke-width:1.5px;}.c{fill:rgba(0,70,180,0.24);}</style><clipPath id="b"><rect x="8614" y="716" width="75" height="75"/></clipPath></defs><g id="a" class="a"><g transform="translate(8619.199 719.3)"><path class="b" d="M.8,17a6.445,6.445,0,0,0,6.4,6.4A6.445,6.445,0,0,0,13.6,17a6.4,6.4,0,0,0,12.8,0,6.4,6.4,0,0,0,12.8,0A6.4,6.4,0,0,0,52,17a6.4,6.4,0,1,0,12.8,0S65.2,11,54.1.7H12.3C12.3.8,1.2,5.9.8,17Z"/><path class="b" d="M5.8,23.4V52.9s0,5,5,5h29"/><line class="b" y2="22.6" transform="translate(57.8 23.4)"/><circle class="b" cx="11" cy="11" r="11" transform="translate(38.8 42)"/><line class="b" x1="7.8" y1="7.6" transform="translate(57 61.4)"/><path class="b" d="M19.1,49H14.5a1.752,1.752,0,0,1-1.7-1.7V38.7A1.752,1.752,0,0,1,14.5,37h4.6a1.752,1.752,0,0,1,1.7,1.7v8.6A1.752,1.752,0,0,1,19.1,49Z"/><path class="c" d="M19.1,49H14.5a1.752,1.752,0,0,1-1.7-1.7V38.7A1.752,1.752,0,0,1,14.5,37h4.6a1.752,1.752,0,0,1,1.7,1.7v8.6A1.752,1.752,0,0,1,19.1,49Z" transform="translate(3 3)"/><path class="b" d="M33.8,49h-4a2.006,2.006,0,0,1-2-2V34a2.006,2.006,0,0,1,2-2h4a2.006,2.006,0,0,1,2,2V47A2.006,2.006,0,0,1,33.8,49Z"/><path class="c" d="M33.8,49h-4a2.006,2.006,0,0,1-2-2V34a2.006,2.006,0,0,1,2-2h4a2.006,2.006,0,0,1,2,2V47A2.006,2.006,0,0,1,33.8,49Z" transform="translate(3 3)"/><path class="b" d="M42.8,45V29.2a2.263,2.263,0,0,1,2.3-2.3h3.5a2.263,2.263,0,0,1,2.3,2.3V42"/><path class="c" d="M42.8,40V28.565c0-.941.956-1.665,2.2-1.665h3.345c1.243,0,2.2.724,2.2,1.665V38.9" transform="translate(3.27 3)"/></g></g></svg>